<svg viewbox="0 0 630 790" xmlns="http://www.w3.org/2000/svg" version="1.0">
  <path d="M0 335.6l164.67.27 164.66.4v67.33H110V527.33c-5.36 3.2-8.34 4.98-8.93 5.34-34.67 20.53-59.2 57.33-65.74 98-2.26 14-1.06 41.06 2.54 54.53C54.8 749.87 115.2 794 180.8 789.73c76-4.93 134.27-70 130.13-145.33-2.4-44-25.2-83.87-61.46-108.13-13.87-9.2-25.47-14.4-41.87-19.07-11.87-3.2-14.93-3.6-35.6-3.47-21.87.14-32.53 1.6-44.93 6.54-2.27.93-2.4-2-2.4-49.87v-50.8h424v317.33h14.66v-156H630v-14.66h-66.67v-81.34c0-44.8-.4-81.2-.93-81.2-.67.14-49.87.14-109.33 0-7.23 0-43.36-.05-108.4-.13l-.27-41.07-.4-40.93-154.27-.67-154.26-.66L186.13 169.6 336.67 19.07 389.73 72l53.07 52.93 4.93-5.06 4.94-5.07-57.2-57.2C363.87 26 337.6.13 337.07 0 336.53-.27 260.4 75.2 168 167.6L0 335.6zm289.47 275.73c25.6 74.67-23.34 152.67-102 162.94C134.53 781.2 82.53 752 59.87 702.8c-8.4-18.13-10.4-27.87-10.4-51.87.13-19.33.4-22.4 3.73-33.2 14-46.26 49.07-78.4 96.27-88.13 13.2-2.8 40.66-1.73 54.53 1.87 39.87 10.66 72.13 40.66 85.47 79.86z"/>
</svg>
